<svg version="1.1" id="Layer_1" xmlns="http://www.w3.org/2000/svg" xmlns:xlink="http://www.w3.org/1999/xlink" x="0px" y="0px"
	 width="100%" viewBox="0 0 1024 1024" enable-background="new 0 0 1024 1024" xml:space="preserve">
<path fill="#CE5A67" opacity="1.000000" stroke="#CE5A67" 
	d="
M852.308960,477.805481 
	C855.131287,489.609833 855.249573,501.286407 856.255432,512.854858 
	C857.165100,523.316101 857.036438,533.799988 856.476379,544.289429 
	C855.466125,563.210388 852.413452,581.801147 848.808533,600.398071 
	C840.137756,645.128784 823.283569,686.443970 798.424438,724.500977 
	C784.830688,745.311584 769.771484,765.095947 751.850281,782.382507 
	C724.522400,808.742676 693.059143,829.167664 658.764221,845.354797 
	C630.789551,858.558777 601.873718,868.879211 571.416931,874.643250 
	C537.874695,880.991272 504.017242,883.823792 470.063538,880.111145 
	C426.833649,875.384155 384.732330,865.743042 345.597076,845.827148 
	C333.873962,839.861206 322.166870,833.842346 310.914246,827.002136 
	C307.232239,824.763916 303.002991,823.519653 299.815033,820.350037 
	C296.621521,817.174744 292.902405,816.621643 288.606445,818.560120 
	C276.545990,824.002014 263.937378,828.270752 251.527420,832.594116 
	C241.875305,835.956726 232.280746,840.197754 221.970657,842.019043 
	C206.424118,844.765442 193.759384,830.725403 198.235901,815.300720 
	C204.679474,793.098145 211.234756,770.927124 216.949371,748.517639 
	C217.649475,745.772156 217.224518,743.891785 215.564697,741.678040 
	C195.039978,714.304138 179.090683,684.494873 167.304352,652.339417 
	C158.203430,627.510193 153.555435,601.685974 148.694489,575.876770 
	C144.852539,555.477905 144.387833,534.753113 145.906097,514.252136 
	C150.525726,451.873657 166.035522,392.532288 199.532547,338.971008 
	C218.713394,308.301117 241.899139,280.802826 269.665619,257.492279 
	C298.314423,233.441025 330.160400,214.538116 364.935028,200.661804 
	C392.066101,189.835510 419.994812,181.713486 448.836487,177.068680 
	C470.375397,173.599960 492.132446,171.506393 513.946106,172.858185 
	C556.515625,175.496216 597.920471,184.110794 637.375183,200.483917 
	C645.201233,203.731613 651.151184,203.721832 659.090820,201.231461 
	C682.902161,193.762695 704.772278,197.045013 723.572571,215.377686 
	C746.355591,237.594055 769.504456,259.441101 791.839844,282.110718 
	C806.680115,297.173126 811.393127,315.644928 808.471008,336.282074 
	C807.471680,343.339478 808.128174,349.806610 811.757996,356.318207 
	C831.236206,391.261230 843.545715,428.745300 850.432007,468.078949 
	C850.976379,471.188324 851.653931,474.274353 852.308960,477.805481 
M402.451721,678.687256 
	C389.123505,678.561890 375.795319,678.436707 362.467102,678.311218 
	C354.321747,678.234497 353.842224,677.687805 352.598541,669.840637 
	C350.464752,656.377258 348.078796,642.953857 345.957428,629.488647 
	C345.391754,625.898254 343.701508,624.085754 340.162384,623.016541 
	C323.595001,618.011780 307.098328,612.770691 290.607605,607.516174 
	C287.458771,606.512817 285.667816,607.186646 284.678375,610.483704 
	C282.384094,618.128784 279.785004,625.682556 277.502258,633.330994 
	C269.655548,659.621582 261.949219,685.954224 254.034470,712.224182 
	C252.839691,716.189758 253.903366,718.003662 257.769501,719.182251 
	C270.346130,723.015991 282.794891,727.277100 295.414429,730.956848 
	C299.271210,732.081421 300.740570,734.126160 301.372284,737.786438 
	C304.025177,753.157715 306.888916,768.491455 310.769653,783.708191 
	C313.151459,783.927795 315.271912,782.953674 317.417694,782.135986 
	C342.760986,772.478271 368.100189,762.809814 393.442078,753.148376 
	C404.937622,748.765747 416.482513,744.507874 427.915680,739.968323 
	C433.903503,737.590881 434.865051,734.184021 431.699188,728.598755 
	C430.638611,726.727600 429.527954,724.881042 428.551819,722.966309 
	C421.680786,709.488708 415.102570,695.858032 407.469330,682.780334 
	C406.458160,681.047913 405.525238,679.229187 402.451721,678.687256 
M507.447937,477.941864 
	C501.315887,484.055634 495.184448,490.170044 489.051727,496.283081 
	C450.360291,534.850281 411.703094,573.452026 372.913544,611.920349 
	C369.680389,615.126709 368.757111,618.239319 369.631226,622.598511 
	C371.393066,631.384949 372.903687,640.232544 374.148132,649.106750 
	C374.649292,652.680603 376.153290,653.975098 379.625427,653.941101 
	C388.955505,653.849487 398.292633,653.771118 407.616180,654.048950 
	C411.628387,654.168518 414.434570,652.852417 417.240051,650.028442 
	C462.434845,604.534546 507.775238,559.185364 552.972717,513.694214 
	C570.932373,495.617859 588.596130,477.247803 606.467834,459.083588 
	C609.174133,456.333069 610.460571,454.244812 606.947693,450.911255 
	C596.073120,440.591766 585.415283,430.040833 574.807068,419.445801 
	C571.595642,416.238373 569.139771,416.489105 566.017395,419.619659 
	C546.725098,438.962677 527.312927,458.186218 507.447937,477.941864 
M737.847961,263.652771 
	C728.644104,254.721527 718.996765,246.196899 710.345093,236.759430 
	C698.697571,224.054077 684.697205,220.962952 668.591431,224.462311 
	C652.402771,227.979691 640.483521,236.864777 634.111389,252.524887 
	C632.544983,256.374359 632.539917,259.679535 635.868652,262.879608 
	C650.754883,277.190643 665.520203,291.628021 680.283691,306.066284 
	C696.931946,322.347839 713.548035,338.662384 730.144226,354.997040 
	C736.985107,361.730133 743.754761,368.536072 750.517700,375.347687 
	C752.042664,376.883545 753.389893,376.806580 754.743835,375.251312 
	C759.093567,370.254700 764.014709,365.853882 768.979248,361.492706 
	C774.394226,356.735901 777.998169,350.506958 781.014648,344.242889 
	C784.272278,337.477936 784.165161,329.692566 783.548523,322.283081 
	C782.581726,310.666412 776.911011,301.277313 768.522827,293.320496 
	C758.373840,283.693542 748.402588,273.879272 737.847961,263.652771 
M459.116669,219.707535 
	C442.851532,222.371292 426.870880,226.218460 411.056000,230.862778 
	C392.464661,236.322479 374.700317,243.759079 357.393829,252.394714 
	C353.303253,254.435837 350.855194,257.043335 351.244293,262.079712 
	C351.653534,267.376862 351.323792,272.730408 351.334961,278.059265 
	C351.348602,284.578369 351.356689,284.637085 357.992920,284.640442 
	C397.793091,284.660614 437.593628,284.575104 477.393036,284.748444 
	C482.412079,284.770325 484.112457,283.191162 484.059875,278.194580 
	C483.868896,260.045349 483.876770,241.890915 484.114624,223.742447 
	C484.177612,218.937515 482.084900,217.478271 477.859833,217.841980 
	C471.898102,218.355194 465.943939,218.955978 459.116669,219.707535 
M621.620544,813.022095 
	C629.202026,809.584778 636.743652,806.055298 644.383911,802.753967 
	C647.589172,801.368896 648.914185,799.272278 648.794495,795.804871 
	C648.633728,791.146362 648.562134,786.457092 648.913940,781.816040 
	C649.296570,776.769287 647.370605,775.233215 642.338623,775.252563 
	C602.349426,775.406555 562.358887,775.382568 522.369751,775.198303 
	C517.436218,775.175598 516.120850,776.933533 516.185486,781.597107 
	C516.406982,797.590027 516.281189,813.587830 516.280884,829.583740 
	C516.280762,837.044556 516.734070,837.474426 524.287109,836.606201 
	C542.447571,834.518494 560.507751,832.000305 578.233704,827.233398 
	C592.724304,823.336487 607.074158,819.134277 621.620544,813.022095 
M472.335510,775.387695 
	C459.358917,775.548279 446.384796,775.175415 433.398987,775.577820 
	C428.589630,775.726868 423.236755,776.730591 418.806610,772.613831 
	C417.074371,771.004089 414.070892,772.374329 411.840240,773.510437 
	C410.532776,774.176392 409.401917,775.431824 408.043671,775.716858 
	C397.164551,777.999573 387.165741,782.946411 376.554443,785.965759 
	C371.306183,787.459106 366.557953,790.149780 361.203430,791.429565 
	C358.214722,792.143860 354.094208,792.227417 352.702576,796.468384 
	C353.864777,797.388184 354.865692,798.227051 355.916992,798.997192 
	C356.720612,799.585876 357.565460,800.126892 358.430206,800.622375 
	C379.914368,812.931580 402.589844,822.151367 426.742188,827.885315 
	C442.938599,831.730408 459.312958,834.133118 475.799530,836.154175 
	C483.314972,837.075378 484.333282,836.696899 484.588562,829.256775 
	C484.622833,828.258728 484.589478,827.258057 484.578522,826.258728 
	C484.429535,812.608826 483.454315,798.961914 484.349182,785.308411 
	C484.949188,776.153137 484.326050,775.443665 475.122772,775.403564 
	C474.456696,775.400635 473.790466,775.421509 472.335510,775.387695 
M801.608521,455.811523 
	C795.844116,432.664856 788.932495,409.907654 779.118652,387.935608 
	C775.760254,389.859863 772.957092,391.670532 769.978821,393.121948 
	C766.064148,395.029785 764.858276,397.800262 765.790955,402.065186 
	C766.454285,405.098541 766.265015,408.217987 765.682373,411.428009 
	C763.767090,421.979950 759.932495,432.013489 760.320679,443.210724 
	C761.098389,465.642670 760.423462,488.124359 760.387390,510.585571 
	C760.376160,517.549011 760.692505,517.803345 767.793945,517.792175 
	C779.283630,517.774170 790.773315,517.750854 802.263000,517.731384 
	C809.725708,517.718811 810.010315,517.496094 809.650452,510.270325 
	C808.747314,492.137695 806.281128,474.229187 801.608521,455.811523 
M239.772552,590.500000 
	C239.772583,578.333984 239.751923,566.167969 239.788193,554.002075 
	C239.796494,551.213867 239.398117,549.071228 235.818130,549.086243 
	C222.652679,549.141602 209.486526,549.118530 196.321106,549.043762 
	C192.968491,549.024780 191.931152,550.722656 192.172714,553.753418 
	C192.648514,559.723083 192.656128,565.765930 193.614792,571.655151 
	C198.356552,600.784180 205.041382,629.400452 217.094345,656.520386 
	C221.942139,667.428284 226.812363,678.321533 233.488800,689.698547 
	C235.769531,682.177368 239.800247,676.161926 239.886826,669.486328 
	C240.223938,643.495789 239.869278,617.496216 239.772552,590.500000 
M194.240051,487.997467 
	C192.874481,495.698822 192.169159,503.465485 192.126465,511.281555 
	C192.092270,517.540833 192.368851,517.780334 198.526810,517.782837 
	C209.516556,517.787292 220.506332,517.759644 231.496063,517.730103 
	C239.828110,517.707703 239.852356,517.697083 239.855438,509.567047 
	C239.864182,486.421936 239.850204,463.276855 239.847351,440.131744 
	C239.846069,429.641571 239.744080,419.149780 239.905945,408.662109 
	C239.966965,404.708893 238.748566,402.803864 234.502792,403.058075 
	C230.522888,403.296356 226.504440,403.210754 222.520523,402.973267 
	C218.439560,402.730042 216.354828,404.351288 214.785400,408.257874 
	C204.560776,433.709351 198.186966,460.125031 194.240051,487.997467 
M804.713745,590.369507 
	C807.617126,578.713867 808.757812,566.817444 809.712891,554.881958 
	C810.057861,550.571228 808.591797,548.999756 804.146118,549.009521 
	C791.825195,549.036560 779.497192,549.271851 767.178284,548.510986 
	C761.159912,548.139282 760.348755,549.117493 760.345947,555.281128 
	C760.331970,586.101929 760.239502,616.923035 760.367798,647.743286 
	C760.435303,663.972778 758.110901,661.244141 774.427002,661.750061 
	C780.194153,661.928955 783.067688,659.848450 785.199951,654.576294 
	C793.520935,634.001526 800.175232,612.953308 804.713745,590.369507 
M569.907959,270.753632 
	C574.545227,257.701904 584.688049,251.672852 597.540771,249.136383 
	C603.597473,247.941086 606.482544,243.182327 610.393250,238.671494 
	C607.400818,237.352005 605.179749,236.217316 602.853821,235.370850 
	C576.803955,225.890900 549.968384,219.935959 522.359375,217.398453 
	C517.903564,216.988922 516.192444,218.441315 516.240234,223.116531 
	C516.430908,241.757126 516.378418,260.401581 516.231506,279.043182 
	C516.198792,283.182800 517.889343,284.715820 521.846252,284.691925 
	C535.661316,284.608521 549.477112,284.609985 563.292419,284.656799 
	C566.059937,284.666199 567.542542,283.908661 567.784058,280.774261 
	C568.023926,277.661041 569.027893,274.606689 569.907959,270.753632 
M412.321350,338.500244 
	C412.317444,347.321228 412.555542,356.151550 412.215912,364.959595 
	C412.022156,369.984741 413.852783,371.802948 418.782684,371.717438 
	C429.597412,371.529816 440.482880,370.934082 451.219086,371.876465 
	C463.705109,372.972382 473.991974,370.519318 481.669922,359.883789 
	C483.299591,357.626343 484.855774,355.789825 484.617249,352.890350 
	C483.743530,342.268860 483.834229,331.624420 484.005402,320.982513 
	C484.061707,317.482941 482.212067,316.301453 479.023193,316.306030 
	C458.385620,316.335693 437.747925,316.375031 417.110596,316.310455 
	C413.368042,316.298737 412.155579,318.021881 412.255585,321.524200 
	C412.407532,326.845947 412.311615,332.174744 412.321350,338.500244 
M485.800049,409.297943 
	C492.947235,402.080688 500.121765,394.890289 507.231964,387.636749 
	C511.893707,382.881134 516.489075,378.059479 521.062378,373.218506 
	C523.708191,370.417908 522.995300,368.138336 519.720215,366.499023 
	C514.355652,363.813873 510.748138,367.171082 507.492676,370.505371 
	C487.250183,391.237946 466.798462,411.759247 446.310181,432.249603 
	C402.033691,476.530640 358.031708,521.086243 313.950836,565.562683 
	C309.263916,570.291687 304.700256,575.152710 300.271637,580.123657 
	C298.015808,582.655823 297.803253,584.802063 301.739380,586.550720 
	C307.175903,588.965820 309.828003,585.775940 313.133087,582.455505 
	C370.470337,524.851746 427.894775,467.334808 485.800049,409.297943 
M654.666931,461.805603 
	C658.862854,466.076263 663.124451,470.285065 667.231689,474.639374 
	C669.959778,477.531525 673.304993,479.681396 676.235901,482.335785 
	C679.118042,484.945923 682.583069,482.859009 685.177246,480.683594 
	C687.732178,478.541107 688.227295,471.844177 686.306580,469.102875 
	C679.044678,458.738586 668.852112,451.194702 660.080444,442.299683 
	C653.443604,435.569550 646.726135,428.871033 639.933472,422.272644 
	C610.903503,394.072662 581.856689,365.889954 552.770630,337.747894 
	C548.588379,333.701385 543.508118,333.473206 539.907043,336.829346 
	C535.899109,340.564667 535.828308,345.313873 540.230774,350.018158 
	C544.547974,354.631348 549.270569,358.863647 553.783569,363.295349 
	C570.422668,379.634705 587.001282,396.035950 603.692749,412.321533 
	C620.475342,428.696014 637.365356,444.960358 654.666931,461.805603 
M663.382385,409.122040 
	C672.190979,415.801361 679.951233,423.572113 687.355591,431.755524 
	C692.357056,437.283142 697.602295,442.603455 702.967773,447.778717 
	C704.242249,449.007996 705.809875,452.160706 708.181519,449.789398 
	C711.992554,445.978882 716.821716,443.010681 719.242004,437.721130 
	C713.326599,431.030365 706.680237,425.387451 700.240051,419.493073 
	C691.028625,411.062378 682.350525,402.051208 673.378418,393.356293 
	C655.805420,376.326233 638.193726,359.336121 620.584412,342.343567 
	C608.364929,330.552094 596.177795,318.726288 583.864014,307.033905 
	C578.843262,302.266479 573.491455,302.011383 569.802185,305.933197 
	C565.912048,310.068512 566.301086,314.137390 571.382751,319.337646 
	C575.336304,323.383484 579.527039,327.196564 583.573914,331.152405 
	C610.000671,356.984589 636.416809,382.827515 663.382385,409.122040 
M586.806091,706.547974 
	C586.802368,704.884094 586.809998,703.220154 586.792969,701.556396 
	C586.721863,694.598816 586.674133,694.551758 579.580750,693.944397 
	C560.126770,692.278625 540.706421,695.069397 521.255493,694.404663 
	C517.808105,694.286804 516.425598,696.274841 516.450928,699.859680 
	C516.539856,712.452454 516.501465,725.050476 516.205322,737.639282 
	C516.104126,741.945374 517.875610,743.029053 521.799927,743.000793 
	C541.599060,742.857910 561.400146,742.796814 581.198853,742.938538 
	C585.682495,742.970581 586.945862,741.144287 586.867798,736.982971 
	C586.683655,727.169556 586.807434,717.350464 586.806091,706.547974 
M659.041321,344.458832 
	C682.212524,367.274292 707.073975,388.347626 729.014099,412.436218 
	C733.088135,416.909149 738.645691,415.596741 740.748657,409.861481 
	C742.766907,404.357086 740.761902,400.059784 736.745361,396.196075 
	C722.019104,382.030304 707.353638,367.801056 692.712341,353.547424 
	C666.113831,327.653229 639.564514,301.708435 612.955688,275.824890 
	C608.160461,271.160370 602.733704,270.899872 598.845825,274.886017 
	C595.181213,278.643250 595.633423,281.573364 600.961426,287.143463 
	C619.606873,306.636200 639.204163,325.165924 659.041321,344.458832 
M681.316528,584.499695 
	C681.313171,589.827026 681.451599,595.159485 681.258484,600.479919 
	C681.121765,604.246826 682.392456,605.918457 686.387390,605.858276 
	C698.537842,605.675171 710.692993,605.662903 722.844727,605.766296 
	C727.106812,605.802551 728.763123,604.131226 728.716492,599.823425 
	C728.561279,585.507996 728.675110,571.189758 728.648926,556.872620 
	C728.646545,555.554688 728.393555,554.235962 728.236694,552.919983 
	C727.932617,550.367188 726.617126,549.224731 723.918640,549.242737 
	C711.600098,549.325134 699.280640,549.278137 686.961548,549.262878 
	C683.086548,549.258118 681.221252,550.927612 681.285645,555.032776 
	C681.434631,564.519592 681.324036,574.010559 681.316528,584.499695 
M272.041992,346.501831 
	C272.033508,353.318939 272.093292,360.137085 271.987030,366.952667 
	C271.935852,370.234344 273.039734,371.767273 276.609161,371.725128 
	C289.078217,371.577911 301.550568,371.601837 314.020477,371.704590 
	C317.377625,371.732239 318.928223,370.475464 318.915985,367.067535 
	C318.861053,351.770508 318.843475,336.473145 318.888031,321.176117 
	C318.897736,317.837616 317.482208,316.307770 314.118195,316.321533 
	C303.310486,316.365784 292.501251,316.227844 281.695007,316.359344 
	C276.073883,316.427734 271.248779,321.974060 271.467041,327.570160 
	C271.700104,333.546051 271.849701,339.525208 272.041992,346.501831 
M501.313538,668.269531 
	C505.616547,663.353516 510.325897,658.666138 515.032104,654.322205 
	C523.884888,646.151062 531.698364,637.005676 540.543152,628.857727 
	C547.857910,622.119263 554.698975,614.864441 561.538208,607.612976 
	C570.494751,598.116760 580.132385,589.266357 589.356445,580.017883 
	C598.946167,570.402710 608.691284,560.914429 617.787598,550.845825 
	C623.141418,544.919678 629.232117,539.672913 633.845947,532.930908 
	C635.466492,530.562988 638.110962,527.459778 640.553650,526.119263 
	C644.984619,523.687561 647.205322,519.453796 650.872742,516.669006 
	C653.455994,514.707397 652.865051,511.255249 655.022522,509.683685 
	C659.652649,506.310913 659.794495,506.505646 656.971558,502.317322 
	C654.917480,502.048004 656.528992,505.626556 653.817200,505.064453 
	C651.627197,504.610565 648.964172,505.328094 647.583984,506.761597 
	C644.832214,509.619720 642.156738,512.544495 639.331299,515.359924 
	C631.887573,522.777222 625.053162,530.832214 617.341797,537.945740 
	C611.850769,543.011047 606.718079,548.387207 601.408691,553.609314 
	C596.490356,558.446716 591.234985,562.943115 586.351807,567.814087 
	C579.296021,574.852173 572.483521,582.133423 565.491089,589.235901 
	C557.581116,597.270386 549.562500,605.197815 541.635376,613.215637 
	C530.680115,624.296204 519.457336,635.134888 508.944794,646.622437 
	C502.092682,654.110107 491.822266,659.296143 491.195312,671.725281 
	C489.050568,670.705627 486.386169,669.035950 485.715942,671.339905 
	C484.512604,675.476379 476.248566,674.752808 479.093872,681.512634 
	C479.413574,682.272156 477.081116,684.595581 479.157776,685.571106 
	C480.586090,686.242004 482.299164,685.964294 484.196259,684.531860 
	C490.410339,679.839844 495.857117,674.454590 501.313538,668.269531 
M728.660583,710.506348 
	C728.658997,707.675598 728.660583,704.844849 728.655212,702.014099 
	C728.640259,694.125183 728.205566,693.556274 720.193542,693.459534 
	C709.038635,693.324829 697.880005,693.494263 686.725464,693.344177 
	C682.659729,693.289490 681.081116,694.861145 681.141357,698.957031 
	C681.330017,711.776245 681.421509,724.601074 681.236755,737.419250 
	C681.175354,741.680420 682.836243,742.881775 686.808960,742.820801 
	C697.962830,742.649719 709.121216,742.800049 720.276978,742.715515 
	C725.885376,742.673035 728.553772,740.024536 728.621643,734.482300 
	C728.715393,726.823730 728.654846,719.163391 728.660583,710.506348 
M318.981110,488.502991 
	C318.980438,484.504791 318.936218,480.505981 318.993683,476.508606 
	C319.034973,473.633850 317.880768,472.266876 314.841125,472.286530 
	C302.180054,472.368530 289.518127,472.334564 276.856537,472.323547 
	C273.895599,472.320953 272.037811,473.492157 272.021179,476.687592 
	C271.957855,488.844696 271.929047,501.002014 271.845703,513.158997 
	C271.822906,516.487671 273.215729,517.834717 276.683289,517.790344 
	C289.009766,517.632202 301.340729,517.612549 313.666992,517.773926 
	C317.594055,517.825317 319.028320,516.296082 318.970001,512.492126 
	C318.852509,504.830627 318.965393,497.165619 318.981110,488.502991 
M282.571838,439.904816 
	C292.571014,439.870941 302.571472,439.730408 312.568726,439.852264 
	C316.976349,439.906006 319.014252,438.225098 318.939911,433.699097 
	C318.800293,425.201935 318.796844,416.699829 318.916992,408.202362 
	C318.968628,404.550995 317.436371,403.140045 313.850769,403.155457 
	C301.518890,403.208466 289.185760,403.171661 276.854523,403.037506 
	C273.419769,403.000153 272.047791,404.451477 272.077698,407.800507 
	C272.144653,415.299194 272.069580,422.799042 272.063293,430.298431 
	C272.055267,439.862671 272.059937,439.862671 282.571838,439.904816 
M352.502380,371.079254 
	C360.270081,372.350586 368.088226,371.468842 375.881683,371.581116 
	C378.942413,371.625214 379.683411,369.403503 379.683044,366.797028 
	C379.680786,351.642151 379.649139,336.487183 379.697083,321.332458 
	C379.708496,317.719818 378.048584,316.237762 374.500427,316.304657 
	C368.840118,316.411346 363.173859,316.442047 357.514984,316.304321 
	C353.048035,316.195618 351.216919,318.147247 351.285461,322.611603 
	C351.428680,331.935303 351.169067,341.265625 351.339294,350.588379 
	C351.460327,357.216217 350.535980,363.881439 352.502380,371.079254 
M621.277039,742.452332 
	C629.091125,742.561646 636.906189,742.628052 644.718811,742.802002 
	C647.718018,742.868713 648.854065,741.519043 648.846863,738.593262 
	C648.814697,725.449219 648.827332,712.304565 648.948792,699.161194 
	C648.981445,695.624939 647.471375,693.856750 644.002258,693.771606 
	C637.686768,693.616577 631.360962,693.679077 625.057007,693.332031 
	C620.760254,693.095581 619.140015,694.605774 619.218079,699.023315 
	C619.444458,711.831055 619.305359,724.645142 619.345093,737.456543 
	C619.350098,739.072754 618.972656,740.838379 621.277039,742.452332 
M681.542419,640.244263 
	C681.502563,645.727051 681.398926,651.210327 681.446777,656.692383 
	C681.475403,659.977356 682.787781,661.801758 686.593506,661.743530 
	C698.898438,661.555298 711.208191,661.613220 723.515381,661.684509 
	C727.081604,661.705139 728.728333,660.227417 728.655212,656.627502 
	C728.567322,652.305115 728.437073,647.965820 728.714355,643.658936 
	C728.974182,639.624023 727.637024,638.035583 723.412964,638.095947 
	C711.441162,638.267212 699.464172,638.059021 687.489258,638.061829 
	C685.551392,638.062317 683.433350,637.674316 681.542419,640.244263 
M702.465027,503.023010 
	C701.824280,504.600525 700.649353,506.619995 699.281189,506.483276 
	C691.478455,505.703461 691.725708,513.566101 686.703369,516.314209 
	C688.104492,517.111084 688.516663,517.548889 688.932068,517.552063 
	C700.360535,517.638855 711.791199,517.578003 723.217041,517.786499 
	C727.295837,517.860962 728.799316,516.386230 728.731079,512.254089 
	C728.536377,500.458374 728.743286,488.656372 728.603638,476.859070 
	C728.571655,474.152649 729.959351,470.439819 727.429871,468.925720 
	C724.365173,467.091156 722.296021,470.901154 719.785950,472.248199 
	C719.057190,472.639221 718.212341,472.875946 717.587585,473.387268 
	C715.281738,475.274597 713.214233,476.772827 712.987000,480.628082 
	C712.491943,489.025970 710.404541,497.164734 702.465027,503.023010 
M627.647644,605.792358 
	C633.142151,605.765747 638.638733,605.639221 644.130493,605.748596 
	C647.644409,605.818604 649.585266,604.317810 649.581787,600.830078 
	C649.567993,586.958313 650.071350,573.062805 648.269653,559.176636 
	C646.283875,559.599548 644.399048,559.070862 643.054993,560.915955 
	C637.980957,567.881775 631.479553,573.483215 625.224915,579.322937 
	C621.907532,582.420288 619.237793,585.846802 619.758057,590.882324 
	C620.011597,593.335571 619.879089,595.855652 619.672302,598.324585 
	C619.053040,605.717041 619.005066,605.713013 627.647644,605.792358 
M355.181915,403.179718 
	C351.795868,403.863892 351.324005,406.421509 351.320435,409.243683 
	C351.309509,417.890442 351.419617,426.538879 351.272217,435.183105 
	C351.211517,438.742157 352.822296,439.857117 356.096619,439.798340 
	C362.413605,439.684967 368.735168,439.648499 375.051758,439.757996 
	C378.454803,439.817017 379.843048,438.419983 379.795746,435.013824 
	C379.673431,426.202271 379.637054,417.387146 379.750275,408.575806 
	C379.802979,404.474335 377.986115,402.940552 374.010651,403.043610 
	C368.028961,403.198730 362.040131,403.080963 355.181915,403.179718 
M621.401917,661.314209 
	C629.221741,661.424805 637.041748,661.521851 644.861206,661.653442 
	C647.608459,661.699646 648.793457,660.294922 648.802673,657.666565 
	C648.820740,652.502380 648.866394,647.338196 648.868408,642.174011 
	C648.869446,639.477112 647.419128,638.291504 644.778259,638.292725 
	C637.613098,638.296021 630.447998,638.246643 623.282837,638.236633 
	C621.504700,638.234192 619.555298,638.631775 619.579468,640.710754 
	C619.657898,647.439758 617.874756,654.292603 621.401917,661.314209 
M437.160919,517.470337 
	C439.051727,522.383972 441.389832,522.983826 445.032013,519.324951 
	C457.712006,506.586853 470.337555,493.794586 483.004364,481.043396 
	C485.414368,478.617279 487.431427,476.033997 484.285400,472.959106 
	C481.060760,469.807312 478.776794,472.771149 476.750183,474.795654 
	C464.740082,486.793640 452.819763,498.881592 440.883881,510.953735 
	C439.249420,512.606873 437.533569,514.235962 437.160919,517.470337 
M261.333862,750.984558 
	C263.376343,751.681580 265.422516,752.367981 267.460327,753.078308 
	C269.882050,753.922668 272.047241,754.094543 273.206390,751.147034 
	C274.446564,747.993469 272.643799,746.357666 270.106049,745.426880 
	C263.727692,743.087341 257.286713,740.917664 250.860626,738.709534 
	C248.133835,737.772583 246.485611,738.697144 245.688538,741.550110 
	C243.190399,750.491516 240.678421,759.431519 237.966873,768.309570 
	C236.918777,771.741089 238.205826,773.150818 241.346527,774.018738 
	C244.889175,774.997620 245.148880,772.434448 245.867767,770.265808 
	C247.433899,765.541260 249.047745,760.830872 250.511459,756.074402 
	C252.947845,748.157349 252.904633,748.144043 261.333862,750.984558 
M583.197754,631.281250 
	C583.270874,630.657288 583.608948,629.938293 582.753723,629.587036 
	C580.913208,628.830994 579.440186,629.344177 578.687500,631.163086 
	C577.960205,632.920776 576.626038,634.866699 579.112915,636.408325 
	C580.333557,637.164978 581.442261,637.928223 579.994690,639.568604 
	C578.615662,639.623718 577.393127,638.240784 574.855286,639.310974 
	C576.113647,648.470459 565.321350,652.196716 563.213501,661.638977 
	C570.199829,661.638977 576.327209,661.650818 582.454529,661.632812 
	C584.757324,661.626038 586.539307,660.595459 586.518616,658.181824 
	C586.450378,650.224243 587.203918,642.275574 586.132996,634.286743 
	C585.807251,631.856628 584.351746,632.444336 583.197754,631.281250 
M425.657257,416.166473 
	C428.746033,411.885681 434.042816,409.414886 437.027771,403.127197 
	C429.098633,403.127197 422.494354,403.046661 415.893616,403.165253 
	C413.102570,403.215393 412.376556,405.302551 412.368195,407.696014 
	C412.347748,413.526947 412.344543,419.358124 412.381653,425.188934 
	C412.389008,426.344574 412.478668,427.576843 414.523468,428.026642 
	C417.953491,424.380829 421.570709,420.536041 425.657257,416.166473 
M522.711121,429.207794 
	C517.884033,434.034485 513.012207,438.817688 508.253204,443.710602 
	C506.510406,445.502472 505.568665,447.619659 507.631134,449.891144 
	C509.506073,451.955994 511.794373,452.376801 513.773010,450.414001 
	C521.214294,443.032684 528.562378,435.554260 535.799927,427.973358 
	C537.317017,426.384338 538.166870,424.085022 536.112305,422.168091 
	C534.227112,420.409027 531.989014,420.822815 530.179443,422.291382 
	C527.732361,424.277344 525.514404,426.545685 522.711121,429.207794 
M293.605621,550.027649 
	C289.234436,548.947021 284.774689,549.378845 280.352753,549.317261 
	C271.870667,549.199158 271.796387,549.260315 272.001221,557.760498 
	C272.113983,562.439331 271.316223,567.214966 272.950195,573.070007 
	C280.440399,565.087891 288.023560,558.733276 293.605621,550.027649 
M351.486481,488.110229 
	C352.194122,489.752197 353.379761,489.340668 354.268280,488.510376 
	C359.176086,483.924194 364.007172,479.256104 368.430969,473.580505 
	C363.446594,471.658112 358.980621,472.220398 354.585938,472.625732 
	C352.257599,472.840454 351.337006,474.638214 351.358582,476.926727 
	C351.391418,480.410797 351.375122,483.895264 351.486481,488.110229 
M425.043335,531.426086 
	C422.275024,529.514709 419.706909,529.323608 417.943085,532.647644 
	C416.797638,534.806274 417.327240,536.883850 419.177063,538.507812 
	C421.104492,540.199951 423.240295,540.085144 425.098450,538.571899 
	C427.459839,536.648865 427.318359,534.301208 425.043335,531.426086 
M239.830276,363.516602 
	C239.650650,362.767670 239.941467,361.825836 238.542191,361.196045 
	C236.428482,364.051788 233.768356,366.617401 232.768341,370.332855 
	C238.831299,372.934998 239.752106,372.102509 239.830276,363.516602 
M521.171021,316.628296 
	C516.026672,316.431702 515.424866,317.405304 517.379578,323.204468 
	C519.418579,321.442993 522.447754,320.634918 521.171021,316.628296 
M318.769623,281.340881 
	C316.158966,278.707336 315.311646,278.969513 311.976135,283.816345 
	C314.580811,283.275330 317.801453,287.754761 318.769623,281.340881 
z"/>
</svg>